<?xml version="1.0" encoding="utf-8"?>
<!-- Generator: Adobe Illustrator 26.3.1, SVG Export Plug-In . SVG Version: 6.00 Build 0)  -->
<svg version="1.1" id="PWFBellow" xmlns="http://www.w3.org/2000/svg" xmlns:xlink="http://www.w3.org/1999/xlink" x="0px" y="0px"
	 viewBox="0 0 25 21" style="enable-background:new 0 0 25 21;" xml:space="preserve">
<style type="text/css">
	.st0{fill:#C9C9C9;}
	.st1{fill:#3592CF;}
	.st2{fill:#FFFFFF;}
</style>
<g>
	<path class="st0" d="M1,8h16c0.6,0,1,0.4,1,1v3c0,0.6-0.4,1-1,1H1c-0.6,0-1-0.4-1-1V9C0,8.4,0.4,8,1,8z"/>
	<path class="st0" d="M1,16h3c0.6,0,1,0.4,1,1v3c0,0.6-0.4,1-1,1H1c-0.6,0-1-0.4-1-1v-3C0,16.4,0.4,16,1,16z"/>
	<path class="st0" d="M8,16h16c0.6,0,1,0.4,1,1v3c0,0.6-0.4,1-1,1H8c-0.6,0-1-0.4-1-1v-3C7,16.4,7.4,16,8,16z"/>
	<path class="st0" d="M21,8h3c0.6,0,1,0.4,1,1v3c0,0.6-0.4,1-1,1h-3c-0.6,0-1-0.4-1-1V9C20,8.4,20.4,8,21,8z"/>
	<path class="st1" d="M8,8h10c0.6,0,1,0.4,1,1v11c0,0.6-0.4,1-1,1H8c-0.6,0-1-0.4-1-1V9C7,8.4,7.4,8,8,8z"/>
	<path class="st0" d="M1,0h9c0.6,0,1,0.4,1,1v3c0,0.6-0.4,1-1,1H1C0.4,5,0,4.6,0,4V1C0,0.4,0.4,0,1,0z"/>
	<polygon class="st1" points="13,6 15,8 11,8 	"/>
	<rect x="12" y="10" class="st2" width="2" height="6"/>
	<rect x="12" y="17" class="st2" width="2" height="2"/>
	<rect x="12" class="st1" width="1" height="5"/>
</g>
</svg>
