<?xml version="1.0" encoding="utf-8"?>
<!-- Generator: Adobe Illustrator 26.1.0, SVG Export Plug-In . SVG Version: 6.00 Build 0)  -->
<svg version="1.1" id="Layer_6" xmlns="http://www.w3.org/2000/svg" xmlns:xlink="http://www.w3.org/1999/xlink" x="0px" y="0px"
	 viewBox="0 0 19 19" style="enable-background:new 0 0 19 19;" xml:space="preserve">
<style type="text/css">
	.st0{fill:#4B4A4B;}
</style>
<path class="st0" d="M16.7,9.5c0-0.6-0.1-1.1-0.2-1.6c0.3-0.2,1.6-1.1,2-1.4c-0.4-1.2-1-2.3-1.9-3.2l-2.2,1
	c-0.8-0.7-1.7-1.3-2.8-1.6c0-0.3-0.2-1.9-0.2-2.4C10.8,0.1,10.1,0,9.5,0S8.2,0.1,7.6,0.2L7.4,2.6c-1.1,0.3-2,0.9-2.8,1.6
	c-0.3-0.1-1.8-0.8-2.2-1c-0.8,0.9-1.5,2-1.9,3.2c0.4,0.3,1.7,1.2,2,1.4C2.4,8.4,2.3,8.9,2.3,9.5s0.1,1.1,0.2,1.6
	c-0.3,0.2-1.6,1.1-2,1.4c0.4,1.2,1,2.3,1.9,3.2l2.2-1c0.8,0.7,1.7,1.3,2.8,1.6c0,0.3,0.2,1.9,0.2,2.4C8.2,18.9,8.9,19,9.5,19
	s1.3-0.1,1.9-0.2l0.2-2.4c1.1-0.3,2-0.9,2.8-1.6c0.3,0.1,1.8,0.8,2.2,1c0.8-0.9,1.5-2,1.9-3.2l-2-1.4C16.6,10.6,16.7,10.1,16.7,9.5z
	 M14.7,9.5c0,0.8-0.2,1.6-0.5,2.2l1.9,1.3l-0.2,0.4l-2.1-1c-0.9,1.3-2.3,2.1-3.9,2.2L9.7,17H9.3l-0.2-2.3c-1.6-0.1-3-1-3.9-2.2
	l-2.1,1L2.9,13l1.9-1.3c-0.3-0.7-0.5-1.4-0.5-2.2c0-0.8,0.2-1.6,0.5-2.2L2.9,6l0.2-0.4l2.1,1c0.9-1.3,2.3-2.1,3.9-2.2L9.3,2h0.5
	l0.2,2.3c1.6,0.1,3,1,3.9,2.2l2.1-1L16.1,6l-1.9,1.3C14.5,7.9,14.7,8.7,14.7,9.5z"/>
<path class="st0" d="M9.5,5.6c-2.1,0-3.9,1.7-3.9,3.9s1.7,3.9,3.9,3.9s3.9-1.7,3.9-3.9S11.6,5.6,9.5,5.6z M9.5,11.4
	c-1,0-1.9-0.8-1.9-1.9s0.8-1.9,1.9-1.9s1.9,0.8,1.9,1.9S10.5,11.4,9.5,11.4z"/>
</svg>
